# xmcd CD database file
#
# Track frame offsets:
#	210
#	11071
#	23426
#	37988
#	51747
#	64233
#	78078
#	90367
#	101775
#	113940
#	125763
#	138053
#	151614
#	166075
#	179875
#	192763
#	206635
#	221137
#	234566
#	249701
#	264139
#	277453
#	292393
#	304156
#
# Disc length: 4263 seconds
#
# Revision: 1
# Processed by: cddbd v1.4PL0 Copyright (c) Steve Scherf et al.
# Submitted via: CDex 1.50Beta7
#
DISCID=6210a518
DTITLE=Sammy Price - Sammy Price and The Blues Singers, Vol. 1 ~ 1938 - 1941
DYEAR=2001
DGENRE=Blues
TTITLE0=Swing Low Sweet Chariot (1938) - w-Ebony Three
TTITLE1=Go Down Moses (1938) - w-Ebony Three
TTITLE2=Heartbroken Blues (1938) - w-Ebony Three
TTITLE3=Mississippi Moan (1938) - w-Ebony Three
TTITLE4=Try and Get It (1938) - w-Bea Foote
TTITLE5=Jive Lover (1938) - w-Bea Foote
TTITLE6=I Want a Long Time Daddy (1938) - w-Bea Foote
TTITLE7=The Monkey Swing (1939) w-Harlem Stompers
TTITLE8=Jammin' in Georgia (1939) w-Harlem Stompers
TTITLE9=My Understanding man (1939) w-Harlem Stompers
TTITLE10=Serenade to a Jitterbug (1939) w-Harlem Stompers
TTITLE11=My Mellow Man (1941) w-Yack Taylor
TTITLE12=Knockin' Myself Out (1941) w-Yack Taylor
TTITLE13=You're Gonna Go Your Way and I'm Gonna Go Mine (1941) w-Yack Taylor
TTITLE14=Don't Stop Now (1941) w-Yack Taylor
TTITLE15=My Nightmare Jockey (1941) w-Yack Taylor
TTITLE16=The Low Down Lonely Blues (1941) w-Sweet Georgia Brown
TTITLE17=Rock Me in the Groove (1941) w-Sweet Georgia Brown
TTITLE18=Black Cat Bone (1941) w-Sweet Georgia Brown
TTITLE19=These Low Down Men Blues (1941) w-Sweet Georgia Brown
TTITLE20=Make Me Love You (1941) w-Ruby Smith
TTITLE21=Fruit Cakin' Mama (1941) w-Ruby Smith
TTITLE22=Black Gal (1941) w-Ruby Smith
TTITLE23=Thinking Blues (1941) w-Ruby Smith
EXTD=YEAR: 2001
EXTT0=
EXTT1=
EXTT2=
EXTT3=
EXTT4=
EXTT5=
EXTT6=
EXTT7=
EXTT8=
EXTT9=
EXTT10=
EXTT11=
EXTT12=
EXTT13=
EXTT14=
EXTT15=
EXTT16=
EXTT17=
EXTT18=
EXTT19=
EXTT20=
EXTT21=
EXTT22=
EXTT23=
PLAYORDER=
